# xmcd
#
# Track frame offsets: 
#        150
#        24472
#        59550
#        70130
#        89990
#        105790
#        121980
#        146467
#        173507
#
# Disc length: 2740 seconds
#
# Revision: 10
# Processed by: cddbd v1.5.2PL0 Copyright (c) Steve Scherf et al.
# Submitted via: ExactAudioCopy v1.0b6
#
DISCID=750ab209
DTITLE=Muddy Waters - Hard Again
DYEAR=1977
DGENRE=Blues
TTITLE0=Mannish Boy
TTITLE1=Bus Driver
TTITLE2=I Want To Be Loved
TTITLE3=Jealous Hearted Man
TTITLE4=I Can't Be Satisfied
TTITLE5=The Blues Had A Baby And They Named It Rock And Roll (#2)
TTITLE6=Deep Down In Florida
TTITLE7=Crosseyed Cat
TTITLE8=Little Girl
EXTD=YEAR: 1977
EXTT0=
EXTT1=
EXTT2=
EXTT3=
EXTT4=
EXTT5=
EXTT6=
EXTT7=
EXTT8=
PLAYORDER=
